<mxfile host="65bd71144e">
    <diagram id="DLxoPFnFCmC83H28-8nR" name="Page-1">
        <mxGraphModel dx="1186" dy="672" grid="1" gridSize="10" guides="1" tooltips="1" connect="1" arrows="1" fold="1" page="1" pageScale="1" pageWidth="850" pageHeight="1100" math="0" shadow="0">
            <root>
                <mxCell id="0"/>
                <mxCell id="1" parent="0"/>
                <mxCell id="23" value="PoliTrivia" style="swimlane;fontStyle=1;align=center;verticalAlign=top;childLayout=stackLayout;horizontal=1;startSize=26;horizontalStack=0;resizeParent=1;resizeParentMax=0;resizeLast=0;collapsible=1;marginBottom=0;" parent="1" vertex="1">
                    <mxGeometry x="170" y="130" width="820" height="228" as="geometry"/>
                </mxCell>
                <mxCell id="24" value="--sc : java.util.Scanner = new Scanner(System.in)&#10;" style="text;strokeColor=none;fillColor=none;align=left;verticalAlign=top;spacingLeft=4;spacingRight=4;overflow=hidden;rotatable=0;points=[[0,0.5],[1,0.5]];portConstraint=eastwest;" parent="23" vertex="1">
                    <mxGeometry y="26" width="820" height="54" as="geometry"/>
                </mxCell>
                <mxCell id="25" value="" style="line;strokeWidth=1;fillColor=none;align=left;verticalAlign=middle;spacingTop=-1;spacingLeft=3;spacingRight=3;rotatable=0;labelPosition=right;points=[];portConstraint=eastwest;strokeColor=inherit;" parent="23" vertex="1">
                    <mxGeometry y="80" width="820" height="8" as="geometry"/>
                </mxCell>
                <mxCell id="26" value="++mainPolitrivia() : void&#10;+paGuardarArchivoPenitencias(anfitrion : BusinessLogic.Entities.PAJugadorAnfitrion, jugadores : BusinessLogic.Entities.PAJugadorAnfitrion[]) : void&#10;" style="text;strokeColor=none;fillColor=none;align=left;verticalAlign=top;spacingLeft=4;spacingRight=4;overflow=hidden;rotatable=0;points=[[0,0.5],[1,0.5]];portConstraint=eastwest;" parent="23" vertex="1">
                    <mxGeometry y="88" width="820" height="140" as="geometry"/>
                </mxCell>
                <mxCell id="55" value="PioliTriviaUI" style="swimlane;fontStyle=1;align=center;verticalAlign=top;childLayout=stackLayout;horizontal=1;startSize=26;horizontalStack=0;resizeParent=1;resizeParentMax=0;resizeLast=0;collapsible=1;marginBottom=0;" vertex="1" parent="1">
                    <mxGeometry x="380" y="389" width="360" height="322" as="geometry"/>
                </mxCell>
                <mxCell id="56" value="~pDAO : DataAccess.PreguntaDAO = new PreguntaDAO()&#10;~rDAO : DataAccess.RespuestaDAO = new RespuestaDAO()&#10;~rDTO : DataAccess.RespuestaDTO = new RespuestaDTO()&#10;~pDto : DataAccess.PreguntaDTO = new PreguntaDTO()&#10;~preguntasEstudiantes : java.util.List&lt;DataAccess.PreguntaDTO&gt;&#10;~respuestas : java.util.List&lt;DataAccess.RespuestaDTO&gt;&#10;~numeroRespuestaCorrecta : int&#10;~preguntaActual : int&#10;~respuestalista : java.util.List&lt;UserInterface.GUI.RespuestaJugador&gt; = new ArrayList&lt;&gt;()&#10;-preguntaActualIndex : int = 0&#10;-categoriaActual : int = 0&#10;" style="text;strokeColor=none;fillColor=none;align=left;verticalAlign=top;spacingLeft=4;spacingRight=4;overflow=hidden;rotatable=0;points=[[0,0.5],[1,0.5]];portConstraint=eastwest;" vertex="1" parent="55">
                    <mxGeometry y="26" width="360" height="224" as="geometry"/>
                </mxCell>
                <mxCell id="57" value="" style="line;strokeWidth=1;fillColor=none;align=left;verticalAlign=middle;spacingTop=-1;spacingLeft=3;spacingRight=3;rotatable=0;labelPosition=right;points=[];portConstraint=eastwest;strokeColor=inherit;" vertex="1" parent="55">
                    <mxGeometry y="250" width="360" height="8" as="geometry"/>
                </mxCell>
                <mxCell id="58" value="+mainFrame() : void&#10;-createAndShowGUI() : void&#10;-placeComponents(panel : JPanel) : void" style="text;strokeColor=none;fillColor=none;align=left;verticalAlign=top;spacingLeft=4;spacingRight=4;overflow=hidden;rotatable=0;points=[[0,0.5],[1,0.5]];portConstraint=eastwest;" vertex="1" parent="55">
                    <mxGeometry y="258" width="360" height="64" as="geometry"/>
                </mxCell>
                <mxCell id="59" value="App" style="swimlane;fontStyle=1;align=center;verticalAlign=top;childLayout=stackLayout;horizontal=1;startSize=26;horizontalStack=0;resizeParent=1;resizeParentMax=0;resizeLast=0;collapsible=1;marginBottom=0;" vertex="1" parent="1">
                    <mxGeometry x="800" y="490" width="160" height="60" as="geometry"/>
                </mxCell>
                <mxCell id="61" value="" style="line;strokeWidth=1;fillColor=none;align=left;verticalAlign=middle;spacingTop=-1;spacingLeft=3;spacingRight=3;rotatable=0;labelPosition=right;points=[];portConstraint=eastwest;strokeColor=inherit;" vertex="1" parent="59">
                    <mxGeometry y="26" width="160" height="8" as="geometry"/>
                </mxCell>
                <mxCell id="62" value="+main(args : String[]) : void" style="text;strokeColor=none;fillColor=none;align=left;verticalAlign=top;spacingLeft=4;spacingRight=4;overflow=hidden;rotatable=0;points=[[0,0.5],[1,0.5]];portConstraint=eastwest;" vertex="1" parent="59">
                    <mxGeometry y="34" width="160" height="26" as="geometry"/>
                </mxCell>
            </root>
        </mxGraphModel>
    </diagram>
</mxfile>